<svg xmlns="http://www.w3.org/2000/svg" viewBox="0 0 22 22"><defs><style>.cls-1{fill:#5c03f7;}</style></defs><title>Asset 7</title><g id="Layer_2" data-name="Layer 2"><g id="Layer_1-2" data-name="Layer 1"><polygon class="cls-1" points="19 0 17 0 17 3 14 3 14 5 17 5 17 8 19 8 19 5 22 5 22 3 19 3 19 0"/><path class="cls-1" d="M0,19v3H17V19a5,5,0,0,0-5-5H5a5,5,0,0,0-5,5m2,0a3,3,0,0,1,3-3h7a3,3,0,0,1,3,3v1H2Z"/><path class="cls-1" d="M8.5,13A4.5,4.5,0,1,0,4,8.5,4.51,4.51,0,0,0,8.5,13m0-7A2.5,2.5,0,1,1,6,8.5,2.5,2.5,0,0,1,8.5,6"/></g></g></svg>