<svg xmlns="http://www.w3.org/2000/svg" viewBox="0 0 24 24"><defs><style>.cls-1{fill:#5c03f7;}</style></defs><title>Asset 1</title><g id="Layer_2" data-name="Layer 2"><g id="Layer_1-2" data-name="Layer 1"><path class="cls-1" d="M11,9h2a1,1,0,0,1,1,1h2a3,3,0,0,0-3-3V6H11V7a3,3,0,0,0,0,6h2a1,1,0,0,1,0,2H11a1,1,0,0,1-1-1H8a3,3,0,0,0,3,3v1h2V17a3,3,0,0,0,0-6H11a1,1,0,0,1,0-2"/><path class="cls-1" d="M21.07,7.79l1.38-2.31L18.52,1.55l-2.3,1.38c-.26-.12-.52-.22-.79-.32L14.78,0H9.22L8.57,2.61c-.27.1-.53.2-.78.32L5.48,1.55,1.55,5.48,2.93,7.79c-.11.25-.22.51-.32.78L0,9.22v5.56l2.61.65c.1.27.21.53.32.78L1.55,18.52l3.93,3.93,2.31-1.38c.25.12.51.22.78.32L9.22,24h5.56l.65-2.61c.27-.1.53-.2.79-.32l2.3,1.38,3.93-3.93-1.38-2.3a7.68,7.68,0,0,0,.32-.79L24,14.78V9.22l-2.61-.65a6.71,6.71,0,0,0-.32-.78M22,13.22l-2.18.55-.16.54a8,8,0,0,1-.61,1.48l-.27.5,1.16,1.92-1.73,1.72-1.92-1.15-.51.27a8,8,0,0,1-1.47.61l-.54.16L13.22,22H10.78l-.54-2.18-.55-.16a8.59,8.59,0,0,1-1.47-.61l-.5-.27L5.79,19.93,4.07,18.21l1.15-1.92L5,15.78a8.27,8.27,0,0,1-.61-1.47l-.16-.54L2,13.22V10.78l2.18-.54.16-.55A8.27,8.27,0,0,1,5,8.22l.27-.5L4.07,5.79,5.79,4.07,7.72,5.22,8.22,5a7.59,7.59,0,0,1,1.47-.61l.55-.16L10.78,2h2.44l.55,2.18.54.16A8,8,0,0,1,15.79,5l.5.27,1.92-1.15,1.73,1.72L18.78,7.72l.27.5a7.59,7.59,0,0,1,.61,1.47l.16.55,2.18.54Z"/></g></g></svg>