<svg fill="none" height="48" viewBox="0 0 48 48" width="48" xmlns="http://www.w3.org/2000/svg"><g fill="#333"><path clip-rule="evenodd" d="m20 40c6.6274 0 12-5.3726 12-12s-5.3726-12-12-12-12 5.3726-12 12 5.3726 12 12 12zm0 4c8.8366 0 16-7.1634 16-16s-7.1634-16-16-16-16 7.1634-16 16 7.1634 16 16 16z" fill-rule="evenodd"/><path clip-rule="evenodd" d="m35.971 28.9702c2.4718-2.198 4.029-5.4023 4.029-8.9702 0-6.6274-5.3726-12-12-12-3.568 0-6.7722 1.55715-8.9703 4.0289-1.992.1192-3.8858.6028-5.6157 1.3851 2.5105-5.55135 8.0972-9.414 14.586-9.414 8.8365 0 16 7.1634 16 16 0 6.4888-3.8627 12.0754-9.414 14.586.7823-1.7299 1.2659-3.6237 1.385-5.6158z" fill-rule="evenodd"/><path d="m18.2887 20h3.4226v1.6h3.4226v3.2h-6.8452l-.154.0128c-.1973.0334-.3758.1305-.5043.2744-.1285.1438-.199.3254-.199.5128s.0705.369.199.5128c.1285.1439.307.241.5043.2744l.154.0128h3.4226l.2806.008c1.11.0657 2.149.5329 2.8968 1.3026.7477.7697 1.1455 1.7814 1.109 2.8207s-.5044 2.0244-1.3045 2.7465c-.8003.7223-1.8697 1.1248-2.9819 1.1222v1.6h-3.4226v-1.6h-3.4226v-3.2h6.8452l.154-.0128c.1973-.0334.3758-.1305.5043-.2744.1285-.1438.199-.3254.199-.5128s-.0705-.369-.199-.5128c-.1285-.1439-.307-.241-.5043-.2744l-.154-.0128h-3.4226l-.2806-.008c-1.11-.0657-2.149-.5329-2.8968-1.3026-.7477-.7697-1.1455-1.7814-1.109-2.8207s.5044-2.0244 1.3045-2.7465c.8003-.7223 1.8697-1.1248 2.9819-1.1222z"/></g></svg>