<?xml version="1.0" standalone="no"?>
<!DOCTYPE svg PUBLIC "-//W3C//DTD SVG 20010904//EN"
 "http://www.w3.org/TR/2001/REC-SVG-20010904/DTD/svg10.dtd">
<svg version="1.0" xmlns="http://www.w3.org/2000/svg"
 width="512.000000pt" height="512.000000pt" viewBox="0 0 512.000000 512.000000"
 preserveAspectRatio="xMidYMid meet">

<g transform="translate(0.000000,512.000000) scale(0.100000,-0.100000)"
fill="#000000" stroke="none">
<path d="M1806 4922 l-201 -199 -235 -62 c-286 -76 -296 -79 -309 -95 -6 -7
-43 -132 -82 -277 l-70 -264 -195 -195 c-165 -166 -194 -200 -194 -225 0 -16
30 -142 67 -278 l66 -249 -15 -61 c-8 -34 -28 -110 -43 -168 -32 -121 -29
-151 16 -175 25 -12 36 -13 59 -4 37 15 42 28 96 229 l46 174 -68 254 -68 253
186 188 c102 103 188 196 191 207 3 11 31 117 63 235 31 118 60 222 64 230 5
9 106 41 256 82 l248 67 185 185 186 185 240 -65 c132 -35 251 -64 265 -64 14
0 133 29 265 65 l240 65 190 -188 190 -187 246 -65 247 -64 66 -251 67 -250
186 -187 186 -186 -67 -254 -68 -253 66 -243 c36 -134 66 -249 66 -255 0 -7
-83 -95 -184 -197 l-184 -185 -62 -235 c-34 -129 -66 -242 -70 -250 -5 -10
-97 -38 -252 -79 l-243 -64 -190 -187 -190 -188 -235 64 c-129 35 -249 64
-265 64 -17 0 -138 -29 -270 -65 l-240 -64 -186 185 -186 185 -244 66 c-134
36 -248 68 -252 73 -4 4 -37 117 -73 251 l-65 244 -148 147 c-161 162 -179
171 -226 123 -47 -46 -37 -66 105 -210 l130 -131 65 -245 c74 -274 81 -296
104 -308 9 -5 96 -30 194 -56 97 -26 177 -51 177 -55 0 -5 -67 -260 -150 -567
-82 -308 -150 -570 -150 -582 0 -12 12 -33 26 -48 20 -20 31 -24 57 -19 25 5
259 78 454 141 l43 14 177 -195 c97 -107 187 -197 199 -200 31 -8 62 4 79 29
7 12 79 267 160 567 80 299 150 549 155 554 13 13 107 13 120 0 5 -5 75 -255
155 -554 81 -300 153 -555 161 -567 16 -25 53 -38 82 -29 10 4 98 94 196 201
l177 194 42 -13 c23 -7 138 -44 256 -81 200 -64 215 -68 240 -54 56 32 54 46
-81 536 -22 81 -148 71 -148 -11 0 -17 18 -98 40 -180 22 -82 39 -151 36 -153
-2 -2 -89 23 -193 56 -104 34 -202 61 -218 61 -18 0 -40 -10 -57 -27 -15 -14
-29 -25 -31 -22 -2 2 -28 93 -57 202 l-53 199 189 189 c104 104 191 189 194
189 3 0 18 -50 34 -112 32 -121 55 -158 101 -158 32 0 75 41 75 72 0 12 -21
100 -46 196 -25 95 -44 175 -42 177 2 2 86 26 187 54 101 27 190 56 197 63 7
7 45 132 84 278 l71 265 195 195 c166 168 194 199 194 225 0 17 -29 140 -65
273 -36 133 -65 250 -65 259 0 10 29 128 65 262 36 134 65 255 65 269 0 21
-40 67 -195 222 l-194 195 -73 269 c-56 210 -77 271 -93 282 -11 7 -136 44
-279 83 l-259 69 -196 196 c-122 121 -205 196 -217 196 -10 0 -135 -32 -277
-70 l-258 -69 -261 69 c-143 39 -267 70 -276 70 -8 0 -106 -89 -216 -198z
m320 -3994 c82 22 151 39 152 37 4 -4 -173 -676 -186 -708 -6 -16 -33 9 -156
143 l-148 162 53 203 54 204 41 -40 42 -41 148 40z"/>
<path d="M2395 4641 c-380 -45 -704 -206 -971 -483 -205 -213 -340 -470 -406
-772 -19 -87 -23 -131 -22 -311 0 -180 3 -225 23 -315 44 -206 121 -388 238
-565 99 -148 283 -329 440 -432 470 -310 1061 -345 1564 -92 367 183 649 504
783 888 67 191 80 279 80 516 0 179 -3 225 -22 311 -68 314 -203 564 -427 792
-110 112 -123 122 -157 122 -28 0 -42 -6 -57 -26 -38 -48 -29 -65 92 -186 210
-210 336 -442 399 -731 32 -147 32 -417 0 -564 -129 -595 -587 -1028 -1186
-1123 -104 -16 -330 -14 -443 6 -253 42 -490 154 -693 326 l-75 63 247 5 c287
6 279 3 286 100 4 59 5 60 31 53 57 -13 103 -33 134 -57 72 -55 82 -56 576
-56 l457 0 55 28 c102 51 147 156 114 267 l-16 56 35 39 c55 61 69 140 41 225
-16 44 -15 46 9 78 57 74 69 147 40 233 -15 46 -15 47 10 73 35 37 56 92 56
151 0 89 -43 159 -125 203 -38 21 -56 22 -299 25 l-258 3 6 22 c55 201 12 593
-77 694 -95 108 -267 92 -337 -31 -26 -44 -30 -62 -30 -126 0 -96 -23 -201
-54 -254 -33 -55 -119 -137 -251 -238 l-110 -84 -31 33 -31 33 -407 0 -407 0
6 23 c4 12 28 67 55 123 167 354 476 623 850 742 313 99 656 87 956 -34 47
-19 96 -34 110 -34 59 0 87 86 42 127 -47 42 -246 109 -413 138 -107 19 -332
27 -430 16z m354 -521 c12 -6 26 -38 39 -87 51 -190 53 -359 7 -518 -30 -103
-31 -129 -5 -155 19 -19 33 -20 315 -20 327 0 358 -5 371 -56 9 -37 -6 -76
-36 -91 -16 -8 -68 -13 -139 -13 -104 0 -117 -2 -138 -22 -30 -28 -30 -74 -1
-105 20 -21 30 -23 120 -23 92 0 101 -2 123 -25 30 -30 32 -64 4 -99 -19 -24
-26 -26 -103 -26 -128 0 -166 -20 -166 -89 0 -48 39 -71 120 -71 85 0 114 -19
114 -75 0 -61 -27 -75 -139 -75 -78 0 -96 -3 -119 -21 -28 -22 -35 -64 -16
-99 12 -23 68 -40 131 -40 55 0 80 -22 81 -71 1 -24 -6 -39 -26 -56 l-27 -23
-433 0 -432 0 -60 36 c-74 45 -137 70 -197 79 l-47 7 0 440 0 440 48 44 c26
25 101 86 167 136 145 110 250 215 288 285 39 73 67 192 67 285 0 65 3 81 20
98 22 22 42 25 69 10z m-819 -1315 l0 -585 -253 0 -253 0 -51 78 c-100 152
-165 309 -205 495 -18 83 -22 135 -22 277 0 152 13 284 30 312 3 5 174 8 380
8 l374 0 0 -585z"/>
</g>
</svg>
