<svg xmlns="http://www.w3.org/2000/svg" viewBox="0 0 22.79 22.76"><defs><style>.cls-1{fill:#757575;}</style></defs><title>Asset 8</title><g id="Layer_2" data-name="Layer 2"><g id="Layer_1-2" data-name="Layer 1"><path class="cls-1" d="M13.53,12.39a3,3,0,0,0,4.25,0l4.13-4.14a3,3,0,0,0,0-4.24L18.76.85a3.08,3.08,0,0,0-4.24,0L10.38,5A2.94,2.94,0,0,0,9.5,7.11a3,3,0,0,0,.88,2.12l.86.86-1.12,1.12-.86-.86a3.08,3.08,0,0,0-4.24,0L.88,14.49A2.94,2.94,0,0,0,0,16.61a3,3,0,0,0,.88,2.12L4,21.89a3,3,0,0,0,4.25,0l4.13-4.14a3,3,0,0,0,0-4.24l-.87-.88,1.12-1.12ZM11,14.92a1,1,0,0,1,0,1.42L6.86,20.47a1,1,0,0,1-1.41,0L2.29,17.31a1,1,0,0,1-.29-.7,1,1,0,0,1,.29-.71l4.14-4.14a1,1,0,0,1,1.41,0l.87.87L6.46,14.88l1.41,1.41L10.12,14Zm.79-7.11a1,1,0,0,1-.29-.7,1,1,0,0,1,.29-.71l4.14-4.14a1,1,0,0,1,1.41,0L20.5,5.42a1,1,0,0,1,0,1.42L16.36,11A1,1,0,0,1,15,11l-.88-.88,1.8-1.8L14.46,6.88l-1.8,1.8Z"/></g></g></svg>