<svg xmlns="http://www.w3.org/2000/svg" viewBox="0 0 20.12 19.99"><defs><style>.cls-1{fill:#757575;}</style></defs><title>Asset 13</title><g id="Layer_2" data-name="Layer 2"><g id="Layer_1-2" data-name="Layer 1"><path class="cls-1" d="M17.18,3A10,10,0,0,0,6.9.52l.64,1.9A8,8,0,0,1,18.12,10a7.92,7.92,0,0,1-1.46,4.61L15,13v5h5l-1.91-1.9A10,10,0,0,0,17.18,3"/><path class="cls-1" d="M3,17A10,10,0,0,0,10.06,20a10.13,10.13,0,0,0,3.2-.53l-.63-1.9A8,8,0,0,1,3.44,5.42L5,7V2H0L2,4A10,10,0,0,0,3,17"/><rect class="cls-1" x="9" y="4.01" width="2" height="8"/><rect class="cls-1" x="9" y="13.01" width="2" height="2"/></g></g></svg>