<svg xmlns="http://www.w3.org/2000/svg" viewBox="0 0 17 24"><defs><style>.cls-1{fill:#757575;}</style></defs><title>Asset 12</title><g id="Layer_2" data-name="Layer 2"><g id="Layer_1-2" data-name="Layer 1"><path class="cls-1" d="M11.41,1l-1-1H6.58l-1,1H3V2H2A2,2,0,0,0,0,4V22a2,2,0,0,0,2,2H15a2,2,0,0,0,2-2V4a2,2,0,0,0-2-2H14V1ZM5,3H6.41l1-1H9.58l1,1H12V5H5ZM15,4V22H2V4H3V7H14V4Z"/><path class="cls-1" d="M8.5,3a.5.5,0,0,0,0,1,.5.5,0,0,0,0-1"/><polygon class="cls-1" points="5 8 3 8 3 21 14 21 14 19 5 19 5 8"/></g></g></svg>