<svg xmlns="http://www.w3.org/2000/svg" viewBox="0 0 23 23"><defs><style>.cls-1{fill:#757575;}</style></defs><title>Asset 11</title><g id="Layer_2" data-name="Layer 2"><g id="Layer_1-2" data-name="Layer 1"><path class="cls-1" d="M8,0a8,8,0,1,0,8,8A8,8,0,0,0,8,0M8,14a6,6,0,1,1,6-6,6,6,0,0,1-6,6"/><polygon class="cls-1" points="9 4 7 4 7 8.41 9.29 10.71 10.71 9.29 9 7.59 9 4"/><polygon class="cls-1" points="18 15 18 18 15 18 15 20 18 20 18 23 20 23 20 20 23 20 23 18 20 18 20 15 18 15"/></g></g></svg>