<svg xmlns="http://www.w3.org/2000/svg" viewBox="0 0 16.02 20"><defs><style>.cls-1{fill:#757575;}</style></defs><title>Asset 1</title><g id="Layer_2" data-name="Layer 2"><g id="Layer_1-2" data-name="Layer 1"><path class="cls-1" d="M8,20a2,2,0,0,0,2-2H6a2,2,0,0,0,2,2"/><path class="cls-1" d="M9,2.08V1A1,1,0,0,0,7,1v1.1A7,7,0,0,0,1,9v4.59l-.23.23a1.85,1.85,0,0,0-.67,2.1A1.84,1.84,0,0,0,2,17H14a1.83,1.83,0,0,0,1.9-1,1.84,1.84,0,0,0-.66-2.1L15,13.58V9A7,7,0,0,0,9,2.08M2.47,15,3,14.43V9A5,5,0,0,1,13,9v5.42l.54.53Z"/></g></g></svg>