<svg xmlns="http://www.w3.org/2000/svg" viewBox="0 0 19.94 22"><defs><style>.cls-1{fill:#5c03f7;}</style></defs><title>Asset 14</title><g id="Layer_2" data-name="Layer 2"><g id="Layer_1-2" data-name="Layer 1"><polygon class="cls-1" points="3.71 5.29 2.29 6.71 5 9.41 9.71 4.71 8.29 3.29 5 6.59 3.71 5.29"/><rect class="cls-1" x="12" y="3" width="7.94" height="2"/><rect class="cls-1" x="12" y="6" width="5.94" height="2"/><polygon class="cls-1" points="10 0 0 0 0 10 2 10 2 2 10 2 10 0"/><polygon class="cls-1" points="3.71 17.29 2.29 18.71 5 21.41 9.71 16.71 8.29 15.29 5 18.59 3.71 17.29"/><rect class="cls-1" x="12" y="15" width="7.94" height="2"/><rect class="cls-1" x="12" y="18" width="5.94" height="2"/><polygon class="cls-1" points="0 22 2 22 2 14 10 14 10 12 0 12 0 22"/></g></g></svg>